<svg xmlns="http://www.w3.org/2000/svg" width="180" height="30" viewBox="0 0 180 30">
    <g data-name="그룹 111">
        <path data-name="패스 35" d="M5.9 20.522a4.044 4.044 0 0 0 1.08 2.807Q8.564 25 12.19 25a10.233 10.233 0 0 0 4.128-.692 3.041 3.041 0 0 0 2.008-2.908 2.6 2.6 0 0 0-1.505-2.37A15.222 15.222 0 0 0 13 17.9l-3.165-.766q-2.391-.547-3.509-.875a12.127 12.127 0 0 1-2.971-1.349 6.032 6.032 0 0 1-2.122-2.332 8.516 8.516 0 0 1-.77-3.794 7.851 7.851 0 0 1 2.045-5.577Q5.439 0 11.767 0q5.979 0 9.065 3.317a8.656 8.656 0 0 1 2.393 5.9H17.4a4.779 4.779 0 0 0-1.08-2.587q-1.545-1.638-5.02-1.636a7.322 7.322 0 0 0-3.434.729 2.877 2.877 0 0 0-1.7 2.661A2.419 2.419 0 0 0 7.214 10.5a6.468 6.468 0 0 0 2.006.8l.077.037 7.215 1.749a13.279 13.279 0 0 1 5.325 2.187 6.568 6.568 0 0 1 2.391 5.468 8.068 8.068 0 0 1-4.862 7.8A15.126 15.126 0 0 1 12.615 30q-7.138 0-10.338-3.465A8.48 8.48 0 0 1 0 20.522z" style="fill:#252525"/>
        <path data-name="패스 36" d="M30.057 28.987h-6.173V5.509h-9.1V.45h24.378v5.059h-9.1z" transform="translate(10.557 .3)" style="fill:#252525"/>
        <path data-name="패스 37" d="M54.236 18.917q0 5.463-3.279 8.2Q47.871 29.7 42.16 29.7a15.492 15.492 0 0 1-4.822-.728 10.071 10.071 0 0 1-4.63-2.768 8.4 8.4 0 0 1-1.774-3.059 11.689 11.689 0 0 1-.579-3.825V.45h6.327v18.43a5.635 5.635 0 0 0 1.543 4.3 5.177 5.177 0 0 0 3.821 1.384 6.187 6.187 0 0 0 4.512-1.419 5.265 5.265 0 0 0 1.39-4.007V.45h6.288z" transform="translate(19.685 .3)" style="fill:#252525"/>
        <path data-name="패스 38" d="M46.224.45h13q6.6 0 9.684 4.768a16.016 16.016 0 0 1 2.277 8.845 18.126 18.126 0 0 1-2.47 9.754 10.627 10.627 0 0 1-9.684 5.169H46.224zm6.057 23.659h5.979a5.514 5.514 0 0 0 5.131-3.057 12.907 12.907 0 0 0 1.467-6.552q0-5.607-2.393-7.754a6.311 6.311 0 0 0-4.359-1.383h-5.825z" transform="translate(29.957 .3)" style="fill:#252525"/>
        <path data-name="사각형 43" transform="translate(104.104 .75)" style="fill:#252525" d="M0 0h6.173v28.537H0z"/>
        <path data-name="패스 39" d="M73.871 2.478a15.709 15.709 0 0 1 16.937 0Q96.4 6.307 96.4 15.018q0 8.639-5.594 12.467a15.513 15.513 0 0 1-16.937 0q-5.554-3.829-5.556-12.467 0-8.712 5.556-12.54m3.281 20.413a7.825 7.825 0 0 0 10.378 0q2.739-2.551 2.739-7.873 0-5.36-2.739-7.946a7.825 7.825 0 0 0-10.378 0q-2.7 2.587-2.7 7.946 0 5.323 2.7 7.873" transform="translate(44.184)" style="fill:#252525"/>
        <path data-name="사각형 44" transform="translate(151.627 .75)" style="fill:#252525" d="M0 0h6.173v28.537H0z"/>
        <path data-name="사각형 45" transform="translate(159.31 .75)" style="fill:#252525" d="M0 0h5.748v13.113H0z"/>
        <path data-name="사각형 46" transform="translate(166.781 .75)" style="fill:#252525" d="M0 0h5.748v28.537H0z"/>
        <path data-name="사각형 47" transform="translate(174.252 .75)" style="fill:#252525" d="M0 0h5.748v28.537H0z"/>
    </g>
</svg>
