<svg xmlns="http://www.w3.org/2000/svg" width="260" height="60" viewBox="0 0 260 60">
    <defs>
        <clipPath id="05r4c6y2na">
            <path data-name="사각형 27" style="fill:none" d="M0 0h156v11.089H0z"/>
        </clipPath>
    </defs>
    <g data-name="그룹 39">
        <path data-name="패스 9" d="M8.26 30.374a6.174 6.174 0 0 0 1.511 4.154q2.213 2.482 7.288 2.482a13.618 13.618 0 0 0 5.776-1.025 4.5 4.5 0 0 0 2.807-4.316 3.876 3.876 0 0 0-2.106-3.507 20.379 20.379 0 0 0-5.344-1.672l-4.427-1.133q-3.348-.809-4.912-1.295a16.564 16.564 0 0 1-4.157-2 8.777 8.777 0 0 1-2.969-3.453A13.208 13.208 0 0 1 .648 13a12.028 12.028 0 0 1 2.861-8.252Q7.611 0 16.465 0q8.367 0 12.686 4.909a13.218 13.218 0 0 1 3.347 8.74h-8.151a7.3 7.3 0 0 0-1.511-3.83q-2.16-2.428-7.018-2.428a9.786 9.786 0 0 0-4.8 1.079 4.287 4.287 0 0 0-2.375 3.939 3.652 3.652 0 0 0 1.457 3.129 8.77 8.77 0 0 0 2.8 1.187l.108.054 10.1 2.59a18.039 18.039 0 0 1 7.446 3.231q3.346 2.811 3.346 8.1 0 8.039-6.8 11.545a20.207 20.207 0 0 1-9.447 2.155q-9.988 0-14.468-5.125A12.98 12.98 0 0 1 0 30.374z"/>
        <path data-name="패스 10" d="M56.83 43.367h-8.637V8.584h-12.74v-7.5h34.118v7.5h-12.74z"/>
        <path data-name="패스 11" d="M106.043 28.436q0 8.09-4.589 12.136-4.319 3.83-12.308 3.829a20.589 20.589 0 0 1-6.748-1.079 13.968 13.968 0 0 1-6.478-4.1 12.617 12.617 0 0 1-2.483-4.531 18.224 18.224 0 0 1-.81-5.663V1.089h8.858v27.293q0 4.207 2.159 6.365a7.009 7.009 0 0 0 5.344 2.05q4.318 0 6.316-2.1 1.944-1.942 1.943-5.933V1.089h8.8z"/>
        <path data-name="패스 12" d="M110.593 1.089h18.192q9.232 0 13.55 7.064 3.185 5.231 3.185 13.1 0 8.575-3.455 14.452-4.481 7.658-13.55 7.658h-17.922zm8.476 35.052h8.368a7.666 7.666 0 0 0 7.179-4.53 20.036 20.036 0 0 0 2.051-9.707q0-8.3-3.347-11.487a8.518 8.518 0 0 0-6.1-2.049h-8.151z"/>
        <path data-name="사각형 17" d="M150.54 1.089h8.637v42.278h-8.637z"/>
        <path data-name="패스 13" d="M171.21 3.669a20.969 20.969 0 0 1 23.7 0q7.827 5.665 7.828 18.559 0 12.786-7.828 18.451a20.719 20.719 0 0 1-23.7 0q-7.774-5.665-7.774-18.451 0-12.894 7.774-18.559m4.589 30.212a10.5 10.5 0 0 0 14.522 0q3.832-3.776 3.833-11.653 0-7.931-3.833-11.761a10.5 10.5 0 0 0-14.522 0q-3.779 3.831-3.779 11.761 0 7.878 3.779 11.653"/>
        <path data-name="사각형 18" d="M220.298 1.089h8.637v42.278h-8.637z"/>
        <path data-name="사각형 19" d="M231.049 1.089h8.043v19.026h-8.043z"/>
        <path data-name="사각형 20" d="M241.503 1.089h8.043v42.278h-8.043z"/>
        <path data-name="사각형 21" d="M251.957 1.089H260v42.278h-8.043z"/>
    </g>
    <g data-name="그룹 42">
        <path data-name="사각형 23" transform="translate(104.05 48.785)" style="fill:#595757" d="M0 0h1.172v8.7H0z"/>
        <path data-name="사각형 24" transform="translate(107.67 49.003)" style="fill:#595757" d="M0 0h.814v3.278H0z"/>
        <path data-name="사각형 25" transform="translate(110.775 48.785)" style="fill:#595757" d="M0 0h1.072v8.7H0z"/>
        <path data-name="사각형 26" transform="translate(114.447 48.785)" style="fill:#595757" d="M0 0h1.072v8.7H0z"/>
        <g data-name="그룹 41">
            <g data-name="그룹 40" transform="translate(104 48.91)" style="clip-path:url(#05r4c6y2na)">
                <path data-name="패스 14" d="M39 10.264V6.5a2.214 2.214 0 0 0-.258-1.266 1.053 1.053 0 0 0-.9-.341 1.525 1.525 0 0 0-1.183.46 1.851 1.851 0 0 0-.421 1.3v3.62h-1.063V6.5a2.227 2.227 0 0 0-.257-1.266 1.05 1.05 0 0 0-.891-.341 1.524 1.524 0 0 0-1.183.466 1.834 1.834 0 0 0-.427 1.289v3.62h-1.053V4.139h1.007V5a2.308 2.308 0 0 1 .831-.766 2.389 2.389 0 0 1 1.125-.252 2.03 2.03 0 0 1 1 .232 1.955 1.955 0 0 1 .714.729 2.655 2.655 0 0 1 .9-.729 2.573 2.573 0 0 1 1.119-.232 2.443 2.443 0 0 1 1.06.215 1.56 1.56 0 0 1 .691.62A1.744 1.744 0 0 1 40 5.38a6.444 6.444 0 0 1 .058 1.029v3.854z" transform="translate(-13.023 -1.97)" style="fill:#595757"/>
                <path data-name="패스 15" d="M54.251 9.412a3.5 3.5 0 0 1-1.045.755 2.809 2.809 0 0 1-1.174.252 2.147 2.147 0 0 1-1.5-.489 1.733 1.733 0 0 1-.539-1.352 1.668 1.668 0 0 1 .53-1.309 2.934 2.934 0 0 1 1.613-.612l.744-.08a4.933 4.933 0 0 0 .983-.154.422.422 0 0 0 .24-.18 1.248 1.248 0 0 0 .058-.483.79.79 0 0 0-.351-.7 1.931 1.931 0 0 0-1.06-.235 1.8 1.8 0 0 0-1.1.286 1 1 0 0 0-.371.846h-1v-.05a1.779 1.779 0 0 1 .668-1.464 2.853 2.853 0 0 1 1.84-.543 3.025 3.025 0 0 1 1.853.46 1.7 1.7 0 0 1 .594 1.44v3.068a.946.946 0 0 0 .088.509.378.378 0 0 0 .316.114.937.937 0 0 0 .114-.009q.067-.009.161-.026v.795a2.763 2.763 0 0 1-.337.072 2 2 0 0 1-.272.02 1.2 1.2 0 0 1-.791-.223.835.835 0 0 1-.263-.675zm-.1-2.3a4.55 4.55 0 0 1-1.446.349c-.242.031-.423.055-.544.075a1.54 1.54 0 0 0-.826.332.919.919 0 0 0-.251.7.869.869 0 0 0 .292.7 1.268 1.268 0 0 0 .837.245 2.225 2.225 0 0 0 1.393-.413 1.291 1.291 0 0 0 .545-1.07z" transform="translate(-20.788 -1.936)" style="fill:#595757"/>
                <path data-name="패스 16" d="M63.455 8.644V.221h1.054V5.27l2.834-2.75h1.329l-2.348 2.236 2.313 3.888h-1.189L65.615 5.47l-1.106 1.041v2.133z" transform="translate(-26.399 -.35)" style="fill:#595757"/>
                <path data-name="패스 17" d="M79.739 8.251h1.042a2.485 2.485 0 0 1-.9 1.6 2.866 2.866 0 0 1-1.845.583 2.6 2.6 0 0 1-2.06-.858 3.413 3.413 0 0 1-.755-2.339 3.658 3.658 0 0 1 .749-2.447 2.568 2.568 0 0 1 2.065-.89 2.69 2.69 0 0 1 2.093.812 3.28 3.28 0 0 1 .741 2.293v.28a1.577 1.577 0 0 1-.015.177h-4.529a2.227 2.227 0 0 0 .492 1.5 1.905 1.905 0 0 0 2.38.206 1.493 1.493 0 0 0 .542-.918m-3.42-1.64h3.443a1.876 1.876 0 0 0-.445-1.324 1.888 1.888 0 0 0-2.474-.009 2.1 2.1 0 0 0-.524 1.332" transform="translate(-31.302 -1.936)" style="fill:#595757"/>
                <path data-name="패스 18" d="M99.5 9.412a3.5 3.5 0 0 1-1.045.755 2.809 2.809 0 0 1-1.174.252 2.147 2.147 0 0 1-1.5-.489 1.733 1.733 0 0 1-.539-1.352 1.668 1.668 0 0 1 .53-1.309 2.936 2.936 0 0 1 1.613-.612l.744-.08a4.924 4.924 0 0 0 .983-.154.422.422 0 0 0 .24-.18 1.248 1.248 0 0 0 .058-.483.79.79 0 0 0-.351-.7A1.93 1.93 0 0 0 98 4.82a1.8 1.8 0 0 0-1.1.286 1 1 0 0 0-.371.846h-1v-.045a1.779 1.779 0 0 1 .671-1.464 2.853 2.853 0 0 1 1.836-.543 3.025 3.025 0 0 1 1.853.46 1.7 1.7 0 0 1 .594 1.438v3.07a.947.947 0 0 0 .088.509.378.378 0 0 0 .316.114.929.929 0 0 0 .113-.008q.067-.009.161-.026v.795a2.756 2.756 0 0 1-.336.072 2.015 2.015 0 0 1-.272.02 1.2 1.2 0 0 1-.791-.223.835.835 0 0 1-.263-.675zm-.1-2.3a4.55 4.55 0 0 1-1.446.349c-.242.031-.423.055-.544.075a1.54 1.54 0 0 0-.826.332.919.919 0 0 0-.251.7.867.867 0 0 0 .293.7 1.266 1.266 0 0 0 .837.245 2.225 2.225 0 0 0 1.392-.413 1.291 1.291 0 0 0 .545-1.07z" transform="translate(-39.648 -1.936)" style="fill:#595757"/>
                <path data-name="패스 19" d="M112.878 10.264V6.5a2.029 2.029 0 0 0-.284-1.249 1.2 1.2 0 0 0-.974-.346 1.858 1.858 0 0 0-1.373.489 1.876 1.876 0 0 0-.489 1.386v3.488H108.7V4.139h1.007v.892a2.358 2.358 0 0 1 .861-.789 2.477 2.477 0 0 1 1.153-.257 3.019 3.019 0 0 1 1.194.209 1.607 1.607 0 0 1 .749.626 1.525 1.525 0 0 1 .211.523 5.056 5.056 0 0 1 .064.952v3.968z" transform="translate(-45.259 -1.97)" style="fill:#595757"/>
                <path data-name="패스 20" d="M125.524 4.257h1.176l-2.641 7.073a3.171 3.171 0 0 1-.755 1.309 1.708 1.708 0 0 1-1.1.309 2.123 2.123 0 0 1-.313-.024 3.583 3.583 0 0 1-.313-.072v-.984a2.272 2.272 0 0 0 .31.068 2.029 2.029 0 0 0 .3.023.9.9 0 0 0 .492-.12.754.754 0 0 0 .287-.383l.275-.726-2.372-6.473h1.177l1.738 4.952z" transform="translate(-50.33 -2.087)" style="fill:#595757"/>
                <path data-name="패스 21" d="M134.807 7.545a.877.877 0 0 0 .12.549.571.571 0 0 0 .441.137c.063 0 .138 0 .225-.006s.2-.011.343-.023v.875q-.264.046-.471.069a3.4 3.4 0 0 1-.372.023 1.518 1.518 0 0 1-1.042-.28 1.337 1.337 0 0 1-.3-1V3.782h-.937v-.817h.937v-1.71h1.054v1.71h1.13v.817h-1.13z" transform="translate(-55.309 -.795)" style="fill:#595757"/>
                <path data-name="패스 22" d="M145.7 8.644V4.875a2.027 2.027 0 0 0-.284-1.252 1.2 1.2 0 0 0-.975-.343 1.907 1.907 0 0 0-1.358.472 1.658 1.658 0 0 0-.5 1.272v3.62h-1.054V.221h1.054v3.162a1.9 1.9 0 0 1 .791-.758 2.524 2.524 0 0 1 1.176-.26 3.018 3.018 0 0 1 1.194.209 1.608 1.608 0 0 1 .749.626 1.526 1.526 0 0 1 .211.523 5.055 5.055 0 0 1 .064.952v3.969z" transform="translate(-58.94 -.35)" style="fill:#595757"/>
                <path data-name="패스 23" d="M154.869.221h1.054v1.172h-1.054zm0 2.3h1.054v6.123h-1.054z" transform="translate(-64.501 -.35)" style="fill:#595757"/>
                <path data-name="패스 24" d="M165.255 10.264V6.5a2.029 2.029 0 0 0-.284-1.249A1.2 1.2 0 0 0 164 4.9a1.858 1.858 0 0 0-1.373.489 1.876 1.876 0 0 0-.489 1.386v3.488h-1.054V4.139h1.007v.892a2.358 2.358 0 0 1 .861-.789 2.476 2.476 0 0 1 1.153-.257 3.018 3.018 0 0 1 1.194.209 1.607 1.607 0 0 1 .749.626 1.525 1.525 0 0 1 .211.523 5.059 5.059 0 0 1 .064.952v3.968z" transform="translate(-67.09 -1.97)" style="fill:#595757"/>
                <path data-name="패스 25" d="M178.716 9.481a2.406 2.406 0 0 1-.863.711 2.776 2.776 0 0 1-3.17-.663 3.529 3.529 0 0 1-.773-2.381 3.452 3.452 0 0 1 .776-2.353 2.59 2.59 0 0 1 2.052-.889 2.444 2.444 0 0 1 1.092.231 2.6 2.6 0 0 1 .875.74v-.771h1.031V10.1a2.666 2.666 0 0 1-.691 2.051 3.257 3.257 0 0 1-2.231.631 3.453 3.453 0 0 1-1.95-.474 1.5 1.5 0 0 1-.7-1.315v-.046h1.031v.023a.771.771 0 0 0 .413.712 2.565 2.565 0 0 0 1.244.237 2.2 2.2 0 0 0 1.431-.371 1.527 1.527 0 0 0 .436-1.224zm-1.856-4.649a1.647 1.647 0 0 0-1.37.606 2.733 2.733 0 0 0-.48 1.733 2.685 2.685 0 0 0 .492 1.718 1.656 1.656 0 0 0 1.37.615 1.725 1.725 0 0 0 1.42-.563 2.7 2.7 0 0 0 .46-1.73 2.815 2.815 0 0 0-.478-1.778 1.7 1.7 0 0 0-1.414-.6" transform="translate(-72.437 -1.936)" style="fill:#595757"/>
                <path data-name="패스 26" d="M195.235 8.548V3.242H194.2v-.818h1.03v-.9a1.621 1.621 0 0 1 .359-1.144 1.384 1.384 0 0 1 1.063-.38c.075 0 .168.006.281.017s.279.032.5.063v.926a8.106 8.106 0 0 0-.284-.043 1.652 1.652 0 0 0-.184-.014.6.6 0 0 0-.516.2 1.383 1.383 0 0 0-.146.76v.514h1.13v.818H196.3v5.307z" transform="translate(-80.897 -.255)" style="fill:#595757"/>
                <path data-name="패스 27" d="M202.1 7.159a3.412 3.412 0 0 1 .787-2.4 3.292 3.292 0 0 1 4.429 0 3.4 3.4 0 0 1 .79 2.4 3.42 3.42 0 0 1-.787 2.4 3.292 3.292 0 0 1-4.429 0 3.41 3.41 0 0 1-.79-2.4m1.077 0a2.663 2.663 0 0 0 .5 1.741 1.756 1.756 0 0 0 1.432.6 1.722 1.722 0 0 0 1.417-.6 2.7 2.7 0 0 0 .492-1.741 2.687 2.687 0 0 0-.492-1.736 1.722 1.722 0 0 0-1.417-.6 1.757 1.757 0 0 0-1.435.6 2.661 2.661 0 0 0-.5 1.738" transform="translate(-84.189 -1.936)" style="fill:#595757"/>
                <path data-name="패스 28" d="M216.247 10.281V4.157h1.019v1.1a2.038 2.038 0 0 1 .682-.924A1.777 1.777 0 0 1 219 4.025h.17a.738.738 0 0 1 .105.014v1.09c-.027 0-.058-.007-.093-.009s-.088 0-.159 0a1.723 1.723 0 0 0-1.285.449 1.787 1.787 0 0 0-.442 1.307v3.408z" transform="translate(-90.084 -1.988)" style="fill:#595757"/>
                <path data-name="패스 29" d="M235.474 4.257h1.177l-2.641 7.073a3.172 3.172 0 0 1-.755 1.309 1.708 1.708 0 0 1-1.1.309 2.123 2.123 0 0 1-.313-.024 3.583 3.583 0 0 1-.313-.072v-.984a2.272 2.272 0 0 0 .31.068 2.029 2.029 0 0 0 .3.023.9.9 0 0 0 .492-.12.754.754 0 0 0 .287-.383l.275-.726-2.373-6.473H232l1.738 4.952z" transform="translate(-96.158 -2.087)" style="fill:#595757"/>
                <path data-name="패스 30" d="M243.508 7.159a3.412 3.412 0 0 1 .787-2.4 3.292 3.292 0 0 1 4.429 0 3.4 3.4 0 0 1 .79 2.4 3.42 3.42 0 0 1-.787 2.4 3.292 3.292 0 0 1-4.429 0 3.41 3.41 0 0 1-.79-2.4m1.077 0a2.663 2.663 0 0 0 .5 1.741 1.756 1.756 0 0 0 1.432.6 1.722 1.722 0 0 0 1.417-.6 2.693 2.693 0 0 0 .492-1.741 2.683 2.683 0 0 0-.492-1.736 1.722 1.722 0 0 0-1.417-.6 1.757 1.757 0 0 0-1.435.6 2.664 2.664 0 0 0-.5 1.738" transform="translate(-101.447 -1.936)" style="fill:#595757"/>
                <path data-name="패스 31" d="M258.676 4.257v3.757a2.026 2.026 0 0 0 .29 1.255 1.2 1.2 0 0 0 .98.352 1.76 1.76 0 0 0 1.382-.523 2.243 2.243 0 0 0 .468-1.541v-3.3h1.054v6.124h-1.007v-.915a2.144 2.144 0 0 1-.849.8 2.631 2.631 0 0 1-1.224.269 2.769 2.769 0 0 1-1.141-.218 1.658 1.658 0 0 1-.744-.617 1.524 1.524 0 0 1-.211-.523 5.053 5.053 0 0 1-.064-.952V4.257z" transform="translate(-107.325 -2.087)" style="fill:#595757"/>
            </g>
        </g>
    </g>
</svg>
